<?xml version="1.0" encoding="utf-8"?>
<!-- Generator: Adobe Illustrator 19.0.0, SVG Export Plug-In . SVG Version: 6.00 Build 0)  -->
<svg version="1.1" id="usd" xmlns:svg="http://www.w3.org/2000/svg"
	 xmlns="http://www.w3.org/2000/svg" xmlns:xlink="http://www.w3.org/1999/xlink" x="0px" y="0px" viewBox="-80 137 450 520"
	 style="enable-background:new -80 137 450 520;" xml:space="preserve">
<path d="M290.5,391c-14.7-11.3-36.7-20.7-66-28l-23-5v-97c0.7,0.7,1.3,1,2,1s1,0.3,1,1c19.3,9.3,29.7,25.3,31,48h77
	c-1.3-40-16.3-70.7-45-92c-18.7-14-40.7-23.3-66-28v-54h-71v52c-33.3,4-59.7,14.7-79,32c-25.3,22.7-38,51.3-38,86
	c0,37.3,13,65,39,83c14,10,40,19.3,78,28v104c-14-4-24.7-10.3-32-19c-8-9.3-13-22-15-38h-76c0,39.3,14.3,70.3,43,93
	c20.7,16,47.3,26.3,80,31v40h71v-39c34.7-4.7,62.3-15.7,83-33c26.7-23.3,40-52.7,40-88C324.5,435,313.2,409,290.5,391z M130.5,341
	c-11.3-3.3-19.3-6.3-24-9c-12.7-6.7-19-17-19-31c0-15.3,6.3-27,19-35c6.7-4,14.7-7.3,24-10V341z M213.5,520c-3.3,1.3-7.3,2.3-12,3
	v-89c12.7,4,22.3,8,29,12c11.3,7.3,17,17.3,17,30C247.5,497.3,236.2,512,213.5,520z"/>
</svg>
