<?xml version="1.0" encoding="UTF-8" standalone="no"?>
<!-- Created with Inkscape (http://www.inkscape.org/) -->
<svg
   xmlns:svg="http://www.w3.org/2000/svg"
   xmlns="http://www.w3.org/2000/svg"
   version="1.0"
   width="18"
   height="18"
   id="rub">
  <path d="M1.3,15.1h2.8v2.4c0,0.1,0,0.2,0.1,0.3c0.1,0.1,0.2,0.1,0.3,0.1h2.1c0.1,0,0.2,0,0.3-0.1
				c0.1-0.1,0.1-0.2,0.1-0.3v-2.4h6.4c0.1,0,0.2,0,0.3-0.1c0.1-0.1,0.1-0.2,0.1-0.3V13c0-0.1,0-0.2-0.1-0.3
				c-0.1-0.1-0.2-0.1-0.3-0.1H7.1v-1.5h4.3c1.7,0,3.1-0.5,4.2-1.6c1.1-1,1.6-2.4,1.6-4c0-1.6-0.5-3-1.6-4c-1.1-1-2.5-1.6-4.2-1.6
				H4.5C4.4,0,4.3,0,4.2,0.1C4.2,0.2,4.1,0.3,4.1,0.4v8H1.3c-0.1,0-0.2,0-0.3,0.1C0.9,8.6,0.9,8.7,0.9,8.8v1.9c0,0.1,0,0.2,0.1,0.3
				c0.1,0.1,0.2,0.1,0.3,0.1h2.8v1.5H1.3c-0.1,0-0.2,0-0.3,0.1c-0.1,0.1-0.1,0.2-0.1,0.3v1.6c0,0.1,0,0.2,0.1,0.3
				C1.1,15,1.2,15.1,1.3,15.1z M7.1,2.7h4.1c0.9,0,1.6,0.3,2.2,0.8c0.6,0.5,0.8,1.2,0.8,2.1c0,0.8-0.3,1.5-0.8,2.1
				c-0.6,0.5-1.3,0.8-2.2,0.8H7.1V2.7z"/>
</svg>